<?xml version="1.0" encoding="UTF-8"?>
<svg width="146px" height="43px" viewBox="0 0 146 43" version="1.1" xmlns="http://www.w3.org/2000/svg" xmlns:xlink="http://www.w3.org/1999/xlink">
    <title>Group 17</title>
    <defs>
        <polygon id="path-1" points="-1.08926352e-15 0 40.8168908 0 40.8168908 42.9999777 -1.08926352e-15 42.9999777"></polygon>
        <polygon id="path-3" points="0 0 40.8168784 0 40.8168784 42.9999588 0 42.9999588"></polygon>
    </defs>
    <g id="Page-1" stroke="none" stroke-width="1" fill="none" fill-rule="evenodd">
        <g id="Homepage" transform="translate(-125, -100)">
            <g id="Group-7" transform="translate(125, 98)">
                <g id="Group-17" transform="translate(0, 2)">
                    <g id="Group-3" transform="translate(0.0001, 0)">
                        <mask id="mask-2" fill="white">
                            <use xlink:href="#path-1"></use>
                        </mask>
                        <g id="Clip-2"></g>
                        <path d="M6.74303844,11.5152642 C7.89684069,12.6526038 9.04986788,13.790708 10.2036701,14.9288121 C9.68799855,15.0633663 9.17826907,15.2188171 8.67732358,15.3992421 C7.54858152,15.8059627 6.46582621,16.3367891 5.46367688,16.9922311 C4.45661885,17.6497117 3.53145856,18.4328273 2.75200908,19.339539 C2.01157082,20.203438 1.40470081,21.1784462 0.946383482,22.2176733 C0.487032744,23.2609779 0.177784806,24.3685016 0.0581676003,25.4969219 C-0.058607728,26.5901746 0.00158840367,27.7022853 0.228421895,28.783051 C0.454997035,29.85872 0.845109304,30.9020246 1.41141798,31.8416103 C1.85604262,32.5814035 2.4076252,33.2562131 3.02353755,33.8703714 C4.78937686,35.6121855 6.55521618,37.3539996 8.32105549,39.096833 C9.08577888,39.8501326 9.95358491,40.5027713 10.8818454,41.0496525 C11.4207687,41.3674349 11.9813937,41.6505593 12.5601032,41.8895968 C13.3219848,42.2043211 14.1177104,42.4431038 14.9263538,42.6120611 C15.7220794,42.7782151 16.5307228,42.8778565 17.342208,42.9354498 C17.8051756,42.9683238 18.2702101,42.9874367 18.7344696,42.9961011 C19.3250634,43.0055301 19.9164322,42.9989043 20.5059926,42.9634819 C21.8117061,42.8837178 23.1114775,42.6658318 24.3637121,42.2945336 C25.7092119,41.8952033 26.9983909,41.3185061 28.2067055,40.6103128 C28.8177091,41.211984 29.4287128,41.815694 30.0389414,42.4173652 C30.1497746,42.525926 30.2606078,42.5710322 30.4174278,42.5710322 L40.2828762,42.5710322 C40.5776564,42.5710322 40.8168908,42.3358172 40.8168908,42.0450477 L40.8168908,21.6361342 C40.8168908,16.5401494 39.4471059,12.5575495 36.657674,9.80708866 C34.89571,8.06909713 33.1337459,6.3311056 31.3717819,4.59311407 C31.1966189,4.42033427 31.0175806,4.25341572 30.8336337,4.09108426 C30.0428167,3.39537797 29.1641598,2.79549057 28.2340908,2.29346076 C27.2523514,1.76492785 26.2132576,1.34266217 25.1460035,1.01519602 C23.9823838,0.659188078 22.785695,0.416327971 21.5781555,0.255270692 C20.2396312,0.0776489765 18.8881893,-0.00109580111 17.5377808,-8.62163858e-05 C14.6140056,0.00374611078 11.6933306,0.379886213 8.87470489,1.1497502 C6.98227285,1.66605091 5.13582756,2.36073785 3.41855852,3.29853973 C3.41080794,3.30236229 3.40305737,3.30618486 3.39608185,3.31000742 C3.15013028,3.44430676 3.05169797,3.74170209 3.16950671,3.99322667 C4.32537578,6.45087921 5.48021144,8.90776724 6.63608051,11.3646553 C6.66320752,11.4212292 6.69731005,11.470158 6.74303844,11.5152642 M22.7924122,27.1984717 C22.3632887,27.2369521 21.9372655,27.2917422 21.5130507,27.3646257 C21.0002209,27.4538188 20.4915249,27.5700247 19.99833,27.7331207 C19.5108188,27.8951973 19.0380337,28.102635 18.5972844,28.3635886 C18.1952879,28.60441 17.8199017,28.8905924 17.4987696,29.2292714 C17.3264485,29.4107157 17.1698868,29.6074502 17.0404522,29.8212589 C17.674966,29.7955203 18.3063795,29.7167755 18.9230669,29.5727923 C19.5934916,29.4155576 20.2463484,29.1803426 20.8503765,28.852112 C21.4265026,28.5391716 21.9576753,28.14188 22.4043668,27.6640597 C22.5415519,27.516254 22.6717616,27.3608031 22.7924122,27.1984717 M21.1288805,14.5585332 C21.2221457,14.5564946 21.3164444,14.5564946 21.409968,14.5564946 C22.3108432,14.5564946 23.1114775,14.6189297 23.8490739,14.7483872 C23.8627666,14.8656124 23.8733591,14.9807989 23.882143,15.0977693 C22.9735173,14.8742769 22.0550742,14.6948713 21.1288805,14.5585332" id="Fill-1" fill="#FFED00" mask="url(#mask-2)"></path>
                    </g>
                    <path d="M24.5564564,21.3463586 C24.5487059,21.3397328 24.5419887,21.3318328 24.5339798,21.3234232 C23.6545479,21.1419789 22.7652986,21.0122666 21.8711406,20.9261316 C20.9857666,20.8415255 20.0965173,20.7974387 19.207268,20.8012612 C18.3208606,20.8050838 17.4347115,20.8560513 16.5570881,20.9778636 C15.8078659,21.0815824 15.0645857,21.2360139 14.3484326,21.4750515 C13.6508809,21.7061891 12.9804561,22.0170908 12.3725527,22.4278888 C11.7721415,22.8338449 11.2342516,23.3366392 10.8469812,23.9423878 C10.6485665,24.2532896 10.4899381,24.5909492 10.385822,24.9433894 C10.2796391,25.2973587 10.2290021,25.6678923 10.2251268,26.0391905 C10.2184096,26.7830611 10.40339,27.5325381 10.7689588,28.1765124 C11.1347859,28.8243092 11.6827516,29.3673679 12.3082229,29.785811 C12.947387,30.2139379 13.6684488,30.5123526 14.4156043,30.6948162 C15.207713,30.8884927 16.0305657,30.9519472 16.847993,30.9346183 C17.6359681,30.9172893 18.4203263,30.8260575 19.1858247,30.6466519 C19.9505481,30.4672464 20.6969285,30.2004315 21.3846628,29.8253108 C22.0734306,29.4509546 22.7051025,28.967273 23.2380837,28.3972016 C23.538806,28.0758516 23.8082676,27.7272339 24.0358762,27.3531325 C24.370701,26.8031933 24.6138107,26.1984639 24.7822565,25.5776799 C25.1178564,24.3452859 25.1625514,23.046889 24.9747291,21.7859532 C24.9349428,21.5229609 24.8210094,21.4019131 24.5564564,21.3463586 M22.7924256,27.198701 C22.3635605,27.2369266 21.9372788,27.2917167 21.513064,27.3646002 C21.0004927,27.4537933 20.4915383,27.5699992 19.9983433,27.7330952 C19.5108322,27.8951718 19.0380471,28.1026095 18.5972978,28.3635631 C18.1955596,28.6043845 17.8199151,28.890567 17.4987829,29.229246 C17.3267202,29.4106902 17.1699002,29.6074248 17.040724,29.8214882 C17.6749793,29.7954948 18.3063929,29.71675 18.9230803,29.5727669 C19.593505,29.4155321 20.2463617,29.1803172 20.8506482,28.8520865 C21.4265159,28.5391461 21.9576887,28.1418545 22.4043801,27.6640342 C22.5415653,27.5162285 22.671775,27.3607776 22.7924256,27.198701 M15.79624,29.7993174 C15.9967215,29.3069714 16.3020942,28.8635542 16.6679213,28.4759464 C17.0611338,28.0585226 17.5230681,27.7053179 18.0183298,27.4125096 C19.0243544,26.8184835 20.1626555,26.475982 21.3185246,26.2723668 C22.0191766,26.1495352 22.7262874,26.077671 23.4364984,26.0412292 C23.5183961,25.8396528 23.5902181,25.6322151 23.651706,25.422229 C23.732312,25.1485336 23.7956083,24.8694866 23.8441786,24.588146 C23.1807294,24.5392172 22.5152134,24.5124593 21.8507307,24.5162818 C21.0198691,24.5201044 20.1900409,24.5680138 19.364863,24.6811617 C18.6828124,24.7744322 18.0056705,24.9105154 17.355914,25.1276369 C16.7565362,25.3271746 16.1804102,25.5939895 15.6562129,25.9489781 C15.1803276,26.270583 14.7473289,26.6620133 14.4437647,27.1418723 C14.1978131,27.5307542 14.0360844,27.9787585 13.9962982,28.4356821 C13.9671043,28.7705385 14.0022403,29.1122756 14.0838797,29.4412707 C14.2872031,29.5141542 14.4944018,29.5765894 14.7047007,29.6275569 C15.0635523,29.7139468 15.428346,29.768482 15.79624,29.7993174 M12.8812488,28.8416382 C12.875565,28.6696229 12.8804737,28.4981173 12.8928746,28.3281407 C12.9153513,28.0450162 12.9639216,27.764695 13.0458193,27.495077 C13.1468351,27.1620044 13.3005549,26.8444769 13.4894106,26.5488655 C13.8777144,25.9433716 14.4156043,25.4413418 15.014982,25.0343664 C15.6231438,24.6235684 16.2943436,24.3126667 16.9908619,24.0815291 C17.7070151,23.8445303 18.4502952,23.6888246 19.1995174,23.5853606 C20.0771409,23.4625289 20.9635483,23.4125807 21.8496973,23.4087582 C22.5511244,23.4039163 23.2535848,23.430929 23.9532034,23.4836804 C23.9648292,23.0996403 23.9493281,22.7148358 23.9103168,22.331815 C22.9988492,22.1592901 22.0773059,22.0458874 21.1521456,21.9788652 C20.1724729,21.9067462 19.188925,21.8855946 18.2082189,21.9365621 C17.7108903,21.9625556 17.2138201,22.0066424 16.7214003,22.074684 C16.295377,22.1322773 15.8729707,22.2082189 15.4557314,22.309899 C14.7054758,22.4913433 13.972013,22.7540807 13.3124391,23.1495885 C13.0088749,23.3310328 12.7218453,23.5402543 12.4591008,23.7762338 C12.2090156,24.001765 11.981407,24.2532896 11.8003019,24.5353946 C11.6292726,24.8022095 11.4988046,25.0968016 11.4267242,25.4038807 C11.3528354,25.7224276 11.3412096,26.0565195 11.3732453,26.3827114 C11.405281,26.7147647 11.4812366,27.0422308 11.6106712,27.34931 C11.6768094,27.507564 11.7576738,27.6602117 11.8499056,27.8049593 C11.9493713,27.9614296 12.062013,28.1092353 12.1875723,28.2473572 C12.3919292,28.4731432 12.6272883,28.6696229 12.8812488,28.8416382" id="Fill-4" fill="#1D1D1B"></path>
                    <g id="Group-8" transform="translate(0, 0)">
                        <mask id="mask-4" fill="white">
                            <use xlink:href="#path-3"></use>
                        </mask>
                        <g id="Clip-7"></g>
                        <path d="M40.2828638,42.5708636 L30.4174153,42.5708636 C30.2608537,42.5708636 30.1497621,42.5257574 30.0389289,42.4171966 C29.4289587,41.8155254 28.817955,41.2118154 28.2069514,40.6101441 C26.9983784,41.3183375 25.7094578,41.8952895 24.3636996,42.294365 C23.1117234,42.665918 21.811952,42.883804 20.5062385,42.9633133 C19.9166781,42.9989906 19.3250509,43.0056163 18.7344571,42.9959325 C18.270456,42.987268 17.8054215,42.9681552 17.3421955,42.935536 C16.5307103,42.8779428 15.7223253,42.7780465 14.9263413,42.6121473 C14.1179563,42.44319 13.3219723,42.2041525 12.5603491,41.8894282 C11.9813812,41.6503907 11.4210146,41.3672662 10.881833,41.0497388 C9.95383081,40.5026027 9.08602478,39.8502188 8.32130139,39.0966644 C6.55546208,37.353831 4.78936441,35.6120169 3.0235251,33.8702028 C2.4078711,33.2560445 1.85603017,32.5814897 1.41140552,31.8414417 C0.845096851,30.9021108 0.454984581,29.8588062 0.228409442,28.7828824 C0.00157595023,27.7023715 -0.0586201814,26.590006 0.0581551469,25.4970081 C0.177772353,24.368333 0.487278643,23.2608093 0.946371029,22.2177596 C1.40468836,21.1782775 2.01181672,20.2032694 2.75225498,19.3396252 C3.53144611,18.4326587 4.4566064,17.6495431 5.46366443,16.9923173 C6.46581376,16.3368753 7.54856907,15.8060489 8.67731113,15.3990734 C9.17825662,15.2186485 9.68824445,15.0631977 10.203916,14.9288983 C9.04985543,13.7907942 7.89708659,12.6524352 6.74302599,11.5150956 C6.6972976,11.4699894 6.66345342,11.4213154 6.63606805,11.3644866 C5.48019899,8.90785345 4.32536333,6.45096543 3.16949426,3.99331289 C3.05194387,3.74178831 3.15011782,3.44413814 3.39632775,3.3098388 C3.40304492,3.30601624 3.41079549,3.30219367 3.41854607,3.29837111 C5.13581511,2.36082407 6.98251875,1.66588229 8.87469243,1.14958158 C11.6933182,0.37997243 14.6139931,0.00383232723 17.5377683,-2.16715534e-13 C18.8881768,-0.00100958466 20.2396187,0.0777351929 21.5784014,0.255102071 C22.7856826,0.416414188 23.9823714,0.659274295 25.145991,1.01528224 C26.2132452,1.34249355 27.2523389,1.76475923 28.2340784,2.29354698 C29.1641474,2.79557679 30.0428042,3.39520935 30.8338796,4.09117047 C31.0175682,4.2532471 31.1966065,4.42016565 31.3717695,4.59294545 C33.1337335,6.33093698 34.8956975,8.06892851 36.6576615,9.80692004 C39.4470934,12.5573808 40.8168784,16.5402356 40.8168784,21.6362205 L40.8168784,42.0448791 C40.8168784,42.3356486 40.577644,42.5708636 40.2828638,42.5708636 L40.2828638,42.5708636 Z M27.3856488,39.7992513 C26.3310539,40.3971 25.2141961,40.8904653 24.0523849,41.2388282 C22.88489,41.587191 21.6706332,41.7887674 20.4527596,41.8606316 C19.8892928,41.8922314 19.3260843,41.8970733 18.7615841,41.886625 C18.3141176,41.8789799 17.8666511,41.8606316 17.4189262,41.8300511 C16.6629868,41.7762804 15.9080808,41.690655 15.1658341,41.5352041 C14.4264292,41.3807726 13.6994253,41.159064 13.0018736,40.8703332 C12.4668255,40.6496439 11.9472787,40.3894549 11.4491751,40.0948628 C11.1533615,39.9202991 10.8645234,39.7350323 10.5842109,39.536259 C11.1396688,39.729171 11.7080443,39.8846219 12.283912,40.0056697 C13.0788626,40.1715688 13.888281,40.2714651 14.6997662,40.3280391 C15.1627338,40.3616776 15.6269933,40.3797711 16.0909944,40.3894549 C16.6826216,40.3991387 17.2732154,40.3922581 17.8638092,40.3568357 C19.1692644,40.276307 20.4692941,40.058421 21.7212703,39.6878873 C23.0659951,39.2877925 24.3559491,38.7118598 25.564522,38.0036665 C26.1713921,38.6015152 26.7785204,39.2003833 27.3856488,39.7992513 L27.3856488,39.7992513 Z M38.8973193,41.46334 L37.3797568,39.964386 L29.1429625,39.964386 L30.6615584,41.46334 L38.8973193,41.46334 Z M37.0382148,11.9529064 C38.798112,14.3550043 39.69227,17.5613694 39.69227,21.6362205 L39.69227,40.6781857 C39.1864158,40.179214 38.6805616,39.6802422 38.174449,39.1802511 L38.174449,19.0287235 C38.174449,16.3598107 37.7980294,13.9951738 37.0382148,11.9529064 L37.0382148,11.9529064 Z M24.742186,37.1927737 C24.6887071,37.2233542 24.6352281,37.2521508 24.5807157,37.2829861 C23.5739161,37.8395512 22.5123457,38.3010618 21.4089221,38.6323505 C20.2424606,38.979694 19.0282039,39.1822898 17.8100719,39.2531346 C17.2468634,39.2857538 16.6833966,39.2905957 16.1191548,39.2801474 C15.6716883,39.2725023 15.2231883,39.2531346 14.7764969,39.2233186 C14.019524,39.1698028 13.2646181,39.0834129 12.5234047,38.927962 C11.7837415,38.774295 11.056996,38.5515671 10.3594442,38.2638556 C9.8233628,38.0429115 9.30484934,37.7809386 8.80571232,37.4873658 C8.50705683,37.3107634 8.21511851,37.1237127 7.93196418,36.9231556 C8.49052227,37.1188708 9.06148129,37.2791636 9.64044923,37.3999565 C10.7048615,37.6244684 11.7935589,37.7233453 12.8832898,37.7638645 C13.7500624,37.7972482 14.6170934,37.7964836 15.4820575,37.7309904 C16.4335698,37.6601456 17.3819818,37.5133592 18.3102423,37.2857894 C19.3552782,37.027639 20.3729286,36.6678085 21.3476926,36.2177655 C22.4859937,35.691781 23.5659071,35.0419455 24.5807157,34.3097974 L24.5807157,36.8145949 C24.5807157,36.9700457 24.6264441,37.0786065 24.7375357,37.1879318 C24.7393442,37.1889511 24.7403776,37.1917543 24.742186,37.1927737 L24.742186,37.1927737 Z M36.25489,38.855843 L34.736294,37.3579084 L26.5002748,37.3579084 L28.0191291,38.855843 L36.25489,38.855843 Z M34.3926852,9.34056747 C34.7848643,10.3953398 35.0592346,11.4903764 35.2400814,12.5996839 C35.446505,13.861639 35.5309863,15.1429618 35.5309863,16.4222459 L35.5309863,36.5737735 C36.0378739,37.0737646 36.5439864,37.5727364 37.0498406,38.0709436 L37.0498406,19.0287235 C37.0498406,14.9518337 36.1546492,11.7436848 34.3926852,9.34056747 L34.3926852,9.34056747 Z M25.7055825,33.1245483 L25.7055825,36.2493654 L34.4074113,36.2493654 L34.4074113,16.4222459 C34.4074113,15.2043776 34.3286138,13.9844707 34.1348494,12.7818926 C33.9638201,11.7187107 33.702884,10.6687804 33.3215557,9.66115301 C32.97433,8.74169943 32.5276385,7.85690374 31.9711472,7.04499156 C31.4360992,6.26391473 30.799777,5.54884079 30.0864658,4.92015676 C29.3568783,4.27822118 28.5464266,3.72547871 27.6881796,3.26371322 C26.7718033,2.76754467 25.8009146,2.37407562 24.8036739,2.07005452 C23.7012838,1.73315938 22.566858,1.50558953 21.4226148,1.35396123 C20.1355027,1.18220078 18.8365063,1.10727856 17.5377683,1.10828766 C14.7152673,1.11110113 11.8948331,1.47500903 9.17360627,2.21786025 C7.53513474,2.66586452 5.93179915,3.25148102 4.42353728,4.02491273 C5.41509416,6.13241859 6.40639269,8.24068896 7.39898298,10.3492142 C8.31355081,9.86553266 9.27565551,9.47104426 10.2641122,9.15631999 C12.153444,8.55184551 14.1355243,8.24068896 16.1240635,8.23227933 C17.4132424,8.22743741 18.7042299,8.34924972 19.9388964,8.715706 C20.9681728,9.02202064 21.9576628,9.49601833 22.7575222,10.1947827 C23.5085529,10.8502246 24.0924295,11.7013818 24.4660072,12.6246579 C24.8754959,13.6371272 25.0323159,14.734967 25.0323159,15.8251617 L25.0323159,15.8616034 C25.0323159,16.2109856 24.6946492,16.4632747 24.3531072,16.3694945 C24.3414813,16.3654171 24.3298555,16.3626139 24.3179713,16.3598107 C21.6016531,15.6093143 18.7703681,15.2925514 15.9489005,15.3310318 C14.7746884,15.3483608 13.6012514,15.4260862 12.441507,15.6026886 C11.2926134,15.7762329 10.1561208,16.0478896 9.0625147,16.43932 C8.0177372,16.8146956 7.01171258,17.3001609 6.08448547,17.9066741 C5.16500894,18.5065615 4.32355486,19.2272419 3.61024362,20.056483 C2.93801042,20.835776 2.38048574,21.7139459 1.96712174,22.6535316 C1.5534994,23.5928625 1.28403774,24.5948835 1.17501299,25.6121946 C1.06986352,26.5928092 1.11275004,27.5910076 1.31504004,28.5565867 C1.51552158,29.5122272 1.87256473,30.4383066 2.37764386,31.2762122 C2.91760058,32.1734949 3.62677818,32.9690975 4.42844597,33.6543554 C5.20686204,34.3194812 6.07079279,34.8778301 6.99207779,35.3271086 C7.90871245,35.7751129 8.88166795,36.1130273 9.879942,36.3222489 C10.8789911,36.5335092 11.9043922,36.6178604 12.9279847,36.6563408 C13.8193009,36.68896 14.7093252,36.68896 15.5957326,36.6160765 C16.5580957,36.5383511 17.5163251,36.3732164 18.4474275,36.1178692 C19.5069311,35.8270997 20.5305237,35.4183404 21.5024457,34.9145267 C22.6699407,34.3097974 23.7645802,33.5700042 24.7889479,32.7512115 C24.804449,32.7387244 24.8191751,32.7272567 24.8336428,32.7157891 C25.1839688,32.4347033 25.7055825,32.6811312 25.7055825,33.1245483 L25.7055825,33.1245483 Z M21.128868,14.5583646 C21.2221333,14.5565808 21.3166903,14.5565808 21.4099556,14.5565808 C22.3108307,14.5565808 23.1117234,14.6187611 23.8490615,14.7484734 C23.8627542,14.8654438 23.8733466,14.9806303 23.8821306,15.0978555 C22.9735049,14.8741083 22.0550617,14.6947027 21.128868,14.5583646 L21.128868,14.5583646 Z M18.7703681,11.9490838 C18.535009,11.9490838 18.2996499,11.9539257 18.0640324,11.9633547 C17.3685475,11.991132 16.6738376,12.0566252 15.9858449,12.1639118 C15.2952687,12.2724725 14.6101179,12.4258847 13.9360762,12.6142096 C13.4134291,12.760996 12.8969824,12.9279145 12.388028,13.1187878 C11.8160356,13.3348899 11.2546356,13.5805533 10.7108036,13.8606196 C10.9743232,14.1197893 11.2381011,14.3799784 11.5008456,14.6388933 C11.7545477,14.5909838 12.0085082,14.5489356 12.2635021,14.5104552 C13.4777589,14.3251883 14.7036415,14.2436404 15.9323659,14.2245275 L15.9685353,14.2245275 L15.9928204,14.2235082 L16.0287314,14.2235082 C17.780878,13.7100107 19.6004547,13.4470184 21.4099556,13.4470184 C22.1901801,13.4470184 22.9344936,13.4951827 23.6214529,13.5910016 C23.541622,13.3127191 23.4424146,13.0420817 23.321764,12.7790894 C22.8897987,12.577513 22.4374234,12.4202783 21.9762642,12.3022885 C21.3828285,12.1496409 20.7746668,12.0594284 20.1646965,12.0056577 C19.7063792,11.9664127 19.2462534,11.9480644 18.7861276,11.9490838 L18.7703681,11.9490838 Z M22.2341,11.2301873 C21.5900272,11.0681107 20.9322618,10.9654112 20.270621,10.9057792 C19.5255324,10.8377376 18.7752768,10.8242312 18.027088,10.8550665 C17.2848412,10.8846277 16.544403,10.957766 15.8106819,11.0726977 C14.5060018,11.2780967 13.2248318,11.6177951 11.9901652,12.0823638 C11.2662615,12.3568237 10.5588924,12.6725674 9.88071705,13.0420817 C9.27668892,12.4452523 8.67240243,11.8491875 8.06837429,11.254142 C8.88166795,10.8328957 9.73681471,10.4873361 10.6115963,10.2080342 C12.3900949,9.64102085 14.2520413,9.34719325 16.1240635,9.33954812 C17.3013758,9.33470621 18.48153,9.44428632 19.6082052,9.77735889 C20.4837619,10.0362738 21.3272828,10.4317815 22.0114002,11.0237689 C22.0870974,11.0900267 22.1620197,11.1590876 22.2341,11.2301873 L22.2341,11.2301873 Z" id="Fill-6" fill="#1D1D1B" mask="url(#mask-4)"></path>
                    </g>
                    <g id="Group" transform="translate(50.2623, 7.1667)" fill="#FFFFFF">
                        <path d="M36.6787166,27.0716714 L36.6787166,29.5512942 L42.3455233,29.5512942 L42.3455233,8.70949074 L36.3725286,8.70949074 L36.3725286,19.013894 C36.3725286,20.8735205 35.9395679,22.2736757 35.0711398,23.2165339 C34.2041442,24.1597544 33.0549541,24.6304587 31.6253603,24.6304587 C28.8431674,24.6304587 27.4526081,22.9520118 27.4526081,19.5951179 L27.4526081,8.70949074 L21.4796133,8.70949074 L21.4796133,20.4861587 C21.4796133,23.585053 22.2714048,25.922631 23.8531974,27.4974433 C25.4364224,29.0722555 27.5797388,29.8611111 30.2863695,29.8611111 C31.561974,29.8611111 32.7487661,29.6223165 33.8467457,29.1447273 C34.9429347,28.6656887 35.8883575,27.9750324 36.6787166,27.0716714" id="Fill-9"></path>
                        <path d="M19.6385036,17.2374274 C19.6385036,14.1748792 18.7804862,11.8847721 17.0648107,10.36639 C15.3491352,8.84764967 12.8904195,8.08738426 9.68902291,8.08738426 C8.02472786,8.08738426 6.40534577,8.30439832 4.83015805,8.73842643 C3.700507,9.04998126 2.68547386,9.453212 1.78721443,9.94811864 C2.44330312,11.3601424 3.10082901,12.7721662 3.757277,14.1827576 C4.31599436,13.8550879 4.94262013,13.5771953 5.63787292,13.3523028 C6.70033417,13.0067276 7.78255712,12.8355515 8.88274526,12.8355515 C10.4712272,12.8355515 11.6619599,13.1861403 12.4563805,13.8873177 C13.2490047,14.5899276 13.6471132,15.5922747 13.6471132,16.8936428 C12.0719255,16.4538849 10.4252363,16.2651615 8.77854716,16.2895129 C7.40636607,16.309567 6.03310707,16.4782363 4.74212863,16.9473591 C3.50827949,17.3978603 2.34736901,18.1233891 1.49617838,19.1268105 C0.69241585,20.0722183 0.163161399,21.2643632 0.0320155234,22.5052109 C-0.0937407956,23.7012949 0.151304375,24.943217 0.761402174,25.9670506 C1.41353851,27.0617898 2.48534166,27.9076433 3.52732259,28.4269014 C4.67996908,29.0013082 5.7977631,29.1778559 7.04526578,29.2265588 C9.03832379,29.306059 11.361582,29.0578894 14.0297717,26.9027894 L14.0297717,28.9919974 L19.6385036,28.9919974 L19.6385036,17.2374274 Z M13.617291,20.3769691 C12.8336495,20.2136713 12.0341986,20.1234279 11.2318733,20.0922724 C10.4467946,20.0629075 9.65956001,20.0911981 8.8866976,20.2272795 C8.26833581,20.3365027 7.66075314,20.5130505 7.11281489,20.8435851 C6.60404076,21.1497683 6.14556915,21.5866613 5.9504672,22.1356424 C5.75572456,22.6842654 5.82183645,23.346767 6.10748295,23.8631602 C6.40103413,24.3956683 6.92597693,24.7734733 7.49188037,24.9997982 C8.14509462,25.2630083 8.85040792,25.321022 9.54853514,25.2762583 C10.2276193,25.2332853 10.9002359,25.0914741 11.5132081,24.798899 C12.1057001,24.5156348 12.6428592,24.0894851 13.0122235,23.5487405 C13.6241178,22.653468 13.7743068,21.4423433 13.617291,20.3769691 L13.617291,20.3769691 Z" id="Fill-11"></path>
                        <polygon id="Fill-13" points="44.186633 29.8611111 50.3236654 29.8611111 50.3236654 0 44.186633 0"></polygon>
                        <path d="M79.5262768,0 L79.5262768,11.120215 C81.0098852,9.45971092 83.0457472,8.62802495 85.6338627,8.62802495 C87.5184368,8.62802495 89.2344431,9.06932039 90.7801183,9.95119431 C92.3261462,10.8327097 93.5385649,12.0719935 94.4191378,13.6690457 C95.2983001,15.2646639 95.7377049,17.1237688 95.7377049,19.244568 C95.7377049,21.3653672 95.2983001,23.2244722 94.4191378,24.8215243 C93.5385649,26.4171425 92.3261462,27.6564263 90.7801183,28.5379418 C89.2344431,29.4198157 87.5184368,29.8611111 85.6338627,29.8611111 C82.8436774,29.8611111 80.7203576,28.9659732 79.2621402,27.1785654 L79.2621402,29.5546062 L73.6443884,29.5546062 L73.6443884,0 L79.5262768,0 Z M84.6154027,24.9552394 C86.1240494,24.9552394 87.3618592,24.437945 88.3298898,23.4026394 C89.2968626,22.3684092 89.7814069,20.9821464 89.7814069,19.244568 C89.7814069,17.5069896 89.2968626,16.1207269 88.3298898,15.0864967 C87.3618592,14.051191 86.1240494,13.5338967 84.6154027,13.5338967 C83.1081666,13.5338967 81.8703569,14.051191 80.9019736,15.0864967 C79.9353535,16.1207269 79.4504565,17.5069896 79.4504565,19.244568 C79.4504565,20.9821464 79.9353535,22.3684092 80.9019736,23.4026394 C81.8703569,24.437945 83.1081666,24.9552394 84.6154027,24.9552394 L84.6154027,24.9552394 Z" id="Fill-15"></path>
                        <path d="M71.8032787,17.2374274 C71.8032787,14.1748792 70.9452613,11.8847721 69.2295858,10.36639 C67.5139103,8.84764967 65.0555539,8.08738426 61.8552352,8.08738426 C60.189503,8.08738426 58.5701209,8.30439832 56.9949332,8.73842643 C55.8652821,9.04998126 54.850249,9.453212 53.9519895,9.94811864 C54.6080782,11.3601424 55.2656041,12.7721662 55.92313,14.1827576 C56.4807695,13.8550879 57.1073952,13.5771953 57.802648,13.3523028 C58.8651093,13.0067276 59.9473322,12.8355515 61.0475204,12.8355515 C62.6360023,12.8355515 63.826735,13.1861403 64.6211557,13.8873177 C65.4137798,14.5899276 65.8118883,15.5922747 65.8118883,16.8936428 C64.2367006,16.4538849 62.5900115,16.2651615 60.9433223,16.2895129 C59.5711412,16.309567 58.1978822,16.4782363 56.9069037,16.9473591 C55.6730546,17.3978603 54.5121441,18.1233891 53.6609535,19.1268105 C52.857191,20.0722183 52.3279365,21.2643632 52.1967906,22.5052109 C52.0710343,23.7012949 52.3160795,24.943217 52.9261773,25.9670506 C53.5797508,27.0617898 54.6501168,27.9076433 55.6920977,28.4269014 C56.8447442,29.0013082 57.9636161,29.1778559 59.2100409,29.2265588 C61.2045361,29.306059 63.5263571,29.0578894 66.1959841,26.9027894 L66.1959841,28.9919974 L71.8032787,28.9919974 L71.8032787,17.2374274 Z M65.7820661,20.3769691 C64.9984246,20.2136713 64.1989737,20.1234279 63.3966484,20.0922724 C62.6115697,20.0629075 61.8243351,20.0911981 61.0514727,20.2272795 C60.4331109,20.3365027 59.8255283,20.5130505 59.27759,20.8435851 C58.7688159,21.1497683 58.3103443,21.5866613 58.1152423,22.1356424 C57.9204997,22.6842654 57.9866116,23.346767 58.2722581,23.8631602 C58.5658092,24.3956683 59.090752,24.7734733 59.6566555,24.9997982 C60.3098697,25.2630083 61.015183,25.321022 61.7133103,25.2762583 C62.3923944,25.2332853 63.065011,25.0914741 63.6779833,24.798899 C64.2704752,24.5156348 64.8076343,24.0894851 65.1769986,23.5487405 C65.7888929,22.653468 65.9390819,21.4423433 65.7820661,20.3769691 L65.7820661,20.3769691 Z" id="Fill-16"></path>
                    </g>
                </g>
            </g>
        </g>
    </g>
</svg>